<svg xmlns:xlink="http://www.w3.org/1999/xlink" class="follow-channels-onboarding__primary-heart__svg" width="50" height="44" viewBox="0 0 50 44" fill="none" xmlns="http://www.w3.org/2000/svg"><path fill-rule="evenodd" clip-rule="evenodd" d="M25 44C25 44 11.2906 30.2123 4.175 23.056C1.50312 20.3689 0 16.72 0 12.9171C0 5.78286 5.75 0 12.8438 0H12.95C16.6625 0 20.225 1.48343 22.8531 4.12657C24.0281 5.30829 25 6.28571 25 6.28571C25 6.28571 25.9719 5.30829 27.1469 4.12657C29.775 1.48343 33.3375 0 37.05 0C37.0875 0 37.1219 0 37.1562 0C44.25 0 50 5.78286 50 12.9171C50 16.72 48.4969 20.3689 45.825 23.056C38.7094 30.2123 25 44 25 44Z" fill="#9146FF"></path></svg>